<svg xmlns="http://www.w3.org/2000/svg" viewBox="0 0 32 32" width="32" height="32">
  <title>Dino Minimalista</title>
  <path d="M28,18.5c-1.1-2.1-3.2-3.6-5.5-4.2c-0.8-0.2-1.4-0.8-1.8-1.5c-1.1-2.1-1.2-4.9-0.4-7.4 C21,3.7,20.4,1.8,19,0.7c-1.6-1.3-4-1.2-5.4,0.4c-1.4,1.5-1.4,3.8-0.2,5.4c0.7,1.1,1.8,2.1,2.7,3.2c0.7,0.8,1.2,2,1.3,3.1 c0.1,1.8-0.9,3.6-2.4,4.7C10,20.2,6,22.2,6,26c0,2.2,1.8,4,4,4h13c3.3,0,6-2.7,6-6C29,22,28.8,20.1,28,18.5z" fill="#76C655"/>
  
  <circle cx="12.5" cy="9" r="2" fill="#FFFFFF"/>
  <circle cx="13.5" cy="9" r="1" fill="#333333"/>
  
  <path d="M10.5,11.5 c0.8,1,2.2,1,3,0" fill="none" stroke="#3E7A28" stroke-width="1" stroke-linecap="round"/>
</svg>